<svg width="248" height="50" viewBox="0 0 248 50" fill="none" xmlns="http://www.w3.org/2000/svg">
<path d="M0.231995 47V36.568H7.35199V38.552H2.58399V40.648H4.02399C4.75999 40.648 5.42666 40.744 6.02399 40.936C6.63199 41.1173 7.11733 41.432 7.47999 41.88C7.84266 42.3173 8.02399 42.92 8.02399 43.688C8.02399 44.4773 7.84799 45.1174 7.49599 45.608C7.14399 46.0987 6.66933 46.456 6.07199 46.68C5.48533 46.8933 4.82399 47 4.08799 47H0.231995ZM2.58399 45.176H3.84799C4.47733 45.176 4.94666 45.0587 5.25599 44.824C5.56533 44.5893 5.71999 44.2213 5.71999 43.72C5.71999 43.2293 5.56 42.8827 5.24 42.68C4.91999 42.4773 4.45066 42.376 3.83199 42.376H2.58399V45.176Z" fill="white"/>
<path d="M11.6337 47.192C10.9084 47.192 10.3324 46.9627 9.90574 46.504C9.47908 46.0347 9.26574 45.464 9.26574 44.792C9.26574 43.96 9.61774 43.3093 10.3217 42.84C11.0257 42.3707 12.1617 42.056 13.7297 41.896C13.7084 41.544 13.6017 41.2667 13.4097 41.064C13.2284 40.8507 12.9191 40.744 12.4817 40.744C12.1511 40.744 11.8151 40.808 11.4737 40.936C11.1324 41.064 10.7697 41.24 10.3857 41.464L9.53774 39.912C10.0391 39.6027 10.5724 39.352 11.1377 39.16C11.7137 38.968 12.3111 38.872 12.9297 38.872C13.9431 38.872 14.7217 39.1653 15.2657 39.752C15.8097 40.3387 16.0817 41.24 16.0817 42.456V47H14.1617L14.0017 46.184H13.9377C13.6071 46.4827 13.2497 46.728 12.8657 46.92C12.4924 47.1013 12.0817 47.192 11.6337 47.192ZM12.4337 45.368C12.7004 45.368 12.9297 45.3093 13.1217 45.192C13.3244 45.064 13.5271 44.8987 13.7297 44.696V43.304C12.8977 43.4107 12.3217 43.5813 12.0017 43.816C11.6817 44.04 11.5217 44.3067 11.5217 44.616C11.5217 44.872 11.6017 45.064 11.7617 45.192C11.9324 45.3093 12.1564 45.368 12.4337 45.368Z" fill="white"/>
<path d="M18.0712 47V39.064H20.4232V41.928H22.9672V39.064H25.3192V47H22.9672V43.976H20.4232V47H18.0712Z" fill="white"/>
<path d="M27.3837 47V39.064H29.7357V41.992H30.5357L31.2397 40.536C31.5704 39.8533 31.9277 39.4054 32.3117 39.192C32.7064 38.9787 33.1864 38.872 33.7517 38.872C33.9864 38.872 34.1997 38.9094 34.3917 38.984L34.0237 41.16C33.9811 41.1387 33.9331 41.1227 33.8797 41.112C33.8264 41.1013 33.7731 41.096 33.7197 41.096C33.5171 41.096 33.3357 41.144 33.1757 41.24C33.0157 41.336 32.8611 41.5547 32.7117 41.896L32.2957 42.84L34.9677 47H32.3917L30.5677 43.832H29.7357V47H27.3837Z" fill="white"/>
<path d="M36.1181 49.944V39.064H38.0381L38.1981 39.848H38.2621C38.5715 39.5707 38.9181 39.3413 39.3021 39.16C39.6968 38.968 40.1021 38.872 40.5181 38.872C41.4781 38.872 42.2355 39.24 42.7901 39.976C43.3448 40.7013 43.6221 41.6773 43.6221 42.904C43.6221 43.8107 43.4621 44.584 43.1421 45.224C42.8221 45.864 42.4061 46.3547 41.8941 46.696C41.3928 47.0267 40.8541 47.192 40.2781 47.192C39.9368 47.192 39.6061 47.1227 39.2861 46.984C38.9661 46.8347 38.6675 46.6267 38.3901 46.36L38.4701 47.624V49.944H36.1181ZM39.7341 45.272C40.1395 45.272 40.4861 45.0853 40.7741 44.712C41.0621 44.3387 41.2061 43.7467 41.2061 42.936C41.2061 41.5067 40.7475 40.792 39.8301 40.792C39.3715 40.792 38.9181 41.032 38.4701 41.512V44.76C38.6835 44.952 38.8968 45.0853 39.1101 45.16C39.3235 45.2347 39.5315 45.272 39.7341 45.272Z" fill="white"/>
<path d="M48.698 47.192C48.026 47.192 47.3913 47.032 46.794 46.712C46.2073 46.3814 45.7327 45.9067 45.37 45.288C45.0073 44.6587 44.826 43.9067 44.826 43.032C44.826 42.1467 45.0073 41.3947 45.37 40.776C45.7327 40.1573 46.2073 39.688 46.794 39.368C47.3913 39.0373 48.026 38.872 48.698 38.872C49.37 38.872 49.9993 39.0373 50.586 39.368C51.1727 39.688 51.6473 40.1573 52.01 40.776C52.3727 41.3947 52.554 42.1467 52.554 43.032C52.554 43.9067 52.3727 44.6587 52.01 45.288C51.6473 45.9067 51.1727 46.3814 50.586 46.712C49.9993 47.032 49.37 47.192 48.698 47.192ZM48.698 45.288C49.178 45.288 49.5407 45.0853 49.786 44.68C50.0313 44.264 50.154 43.7147 50.154 43.032C50.154 42.3387 50.0313 41.7893 49.786 41.384C49.5407 40.9787 49.178 40.776 48.698 40.776C48.2073 40.776 47.8393 40.9787 47.594 41.384C47.3593 41.7893 47.242 42.3387 47.242 43.032C47.242 43.7147 47.3593 44.264 47.594 44.68C47.8393 45.0853 48.2073 45.288 48.698 45.288Z" fill="white"/>
<path d="M55.4551 47V40.904H53.1191V39.064H60.1591V40.904H57.8071V47H55.4551Z" fill="white"/>
<path d="M64.7929 47.192C64.0569 47.192 63.3902 47.032 62.7929 46.712C62.2062 46.3814 61.7369 45.9067 61.3849 45.288C61.0435 44.6587 60.8729 43.9067 60.8729 43.032C60.8729 42.1467 61.0649 41.3947 61.4489 40.776C61.8329 40.1573 62.3395 39.688 62.9689 39.368C63.5982 39.0373 64.2755 38.872 65.0009 38.872C65.4915 38.872 65.9235 38.952 66.2969 39.112C66.6809 39.272 67.0222 39.4747 67.3209 39.72L66.2169 41.24C65.8435 40.9307 65.4862 40.776 65.1449 40.776C64.5795 40.776 64.1262 40.9787 63.7849 41.384C63.4542 41.7893 63.2889 42.3387 63.2889 43.032C63.2889 43.7147 63.4542 44.264 63.7849 44.68C64.1262 45.0853 64.5529 45.288 65.0649 45.288C65.3209 45.288 65.5715 45.2347 65.8169 45.128C66.0622 45.0107 66.2862 44.872 66.4889 44.712L67.4169 46.248C67.0222 46.5893 66.5955 46.8347 66.1369 46.984C65.6782 47.1227 65.2302 47.192 64.7929 47.192Z" fill="white"/>
<path d="M70.3614 47V40.904H68.0254V39.064H75.0654V40.904H72.7134V47H70.3614Z" fill="white"/>
<path d="M76.5244 47V39.064H79.9004C80.4977 39.064 81.0364 39.128 81.5164 39.256C81.9964 39.384 82.375 39.6027 82.6524 39.912C82.9404 40.2107 83.0844 40.6267 83.0844 41.16C83.0844 41.4907 82.9777 41.816 82.7644 42.136C82.5617 42.4454 82.2257 42.664 81.7564 42.792V42.856C82.2577 42.9733 82.6524 43.1813 82.9404 43.48C83.239 43.768 83.3884 44.1787 83.3884 44.712C83.3884 45.256 83.239 45.6987 82.9404 46.04C82.6417 46.3707 82.2417 46.616 81.7404 46.776C81.2497 46.9253 80.7004 47 80.0924 47H76.5244ZM78.8124 42.168H79.7404C80.135 42.168 80.4177 42.0987 80.5884 41.96C80.759 41.8213 80.8444 41.6347 80.8444 41.4C80.8444 41.1547 80.759 40.9627 80.5884 40.824C80.4284 40.6853 80.151 40.616 79.7564 40.616H78.8124V42.168ZM78.8124 45.448H79.9484C80.375 45.448 80.6737 45.368 80.8444 45.208C81.0257 45.0373 81.1164 44.8187 81.1164 44.552C81.1164 44.3173 81.0204 44.12 80.8284 43.96C80.647 43.8 80.3484 43.72 79.9324 43.72H78.8124V45.448Z" fill="white"/>
<path d="M88.3855 47.192C87.7135 47.192 87.0788 47.032 86.4815 46.712C85.8948 46.3814 85.4202 45.9067 85.0575 45.288C84.6948 44.6587 84.5135 43.9067 84.5135 43.032C84.5135 42.1467 84.6948 41.3947 85.0575 40.776C85.4202 40.1573 85.8948 39.688 86.4815 39.368C87.0788 39.0373 87.7135 38.872 88.3855 38.872C89.0575 38.872 89.6868 39.0373 90.2735 39.368C90.8602 39.688 91.3348 40.1573 91.6975 40.776C92.0602 41.3947 92.2415 42.1467 92.2415 43.032C92.2415 43.9067 92.0602 44.6587 91.6975 45.288C91.3348 45.9067 90.8602 46.3814 90.2735 46.712C89.6868 47.032 89.0575 47.192 88.3855 47.192ZM88.3855 45.288C88.8655 45.288 89.2282 45.0853 89.4735 44.68C89.7188 44.264 89.8415 43.7147 89.8415 43.032C89.8415 42.3387 89.7188 41.7893 89.4735 41.384C89.2282 40.9787 88.8655 40.776 88.3855 40.776C87.8948 40.776 87.5268 40.9787 87.2815 41.384C87.0468 41.7893 86.9295 42.3387 86.9295 43.032C86.9295 43.7147 87.0468 44.264 87.2815 44.68C87.5268 45.0853 87.8948 45.288 88.3855 45.288Z" fill="white"/>
<path d="M101.104 49.944V47.912L101.168 46.712C100.965 46.84 100.736 46.952 100.48 47.048C100.224 47.144 99.9623 47.192 99.6956 47.192C98.7676 47.192 98.0263 46.824 97.4716 46.088C96.917 45.3413 96.6396 44.3227 96.6396 43.032C96.6396 42.168 96.7889 41.4267 97.0876 40.808C97.3863 40.1787 97.765 39.6987 98.2236 39.368C98.693 39.0373 99.1836 38.872 99.6956 38.872C100.016 38.872 100.293 38.9147 100.528 39C100.762 39.0747 100.976 39.176 101.168 39.304L101.104 38.152V35.784H103.392V38.152L103.312 39.368C103.546 39.2293 103.802 39.112 104.08 39.016C104.368 38.92 104.656 38.872 104.944 38.872C105.541 38.872 106.053 39.0373 106.48 39.368C106.917 39.6987 107.253 40.168 107.488 40.776C107.733 41.3733 107.856 42.0827 107.856 42.904C107.856 43.8107 107.706 44.584 107.408 45.224C107.12 45.864 106.736 46.3547 106.256 46.696C105.786 47.0267 105.28 47.192 104.736 47.192C104.224 47.192 103.749 47.048 103.312 46.76L103.392 47.912V49.944H101.104ZM100.32 45.272C100.65 45.272 100.933 45.1547 101.168 44.92V41.096C101.029 40.9787 100.88 40.8987 100.72 40.856C100.56 40.8133 100.405 40.792 100.256 40.792C99.925 40.792 99.6423 40.9733 99.4076 41.336C99.173 41.688 99.0556 42.2427 99.0556 43C99.0556 43.7787 99.1676 44.3547 99.3916 44.728C99.6156 45.0907 99.925 45.272 100.32 45.272ZM104.192 45.272C104.554 45.272 104.853 45.0853 105.088 44.712C105.322 44.3387 105.44 43.7467 105.44 42.936C105.44 41.5067 105.04 40.792 104.24 40.792C104.08 40.792 103.925 40.8187 103.776 40.872C103.626 40.9147 103.472 41 103.312 41.128V44.952C103.461 45.08 103.61 45.1653 103.76 45.208C103.909 45.2507 104.053 45.272 104.192 45.272Z" fill="white"/>
<path d="M109.524 47V39.064H111.796V41.272C111.796 41.6667 111.775 42.1147 111.732 42.616C111.69 43.1067 111.647 43.5973 111.604 44.088H111.652C111.78 43.8427 111.935 43.5653 112.116 43.256C112.298 42.936 112.447 42.6587 112.564 42.424L114.628 39.064H116.772V47H114.5V44.792C114.5 44.3867 114.522 43.9387 114.564 43.448C114.618 42.9573 114.666 42.4667 114.708 41.976H114.644C114.516 42.2107 114.362 42.4933 114.18 42.824C114.01 43.144 113.86 43.416 113.732 43.64L111.668 47H109.524Z" fill="white"/>
<path d="M121.332 47.192C120.799 47.192 120.282 47.128 119.78 47C119.279 46.872 118.772 46.6213 118.26 46.248L119.172 44.76C119.503 44.984 119.839 45.1493 120.18 45.256C120.522 45.352 120.831 45.4 121.108 45.4C121.524 45.4 121.871 45.32 122.148 45.16C122.436 45 122.58 44.7814 122.58 44.504C122.58 43.9814 122.175 43.72 121.364 43.72H120.1V42.168H121.22C121.967 42.168 122.34 41.912 122.34 41.4C122.34 40.9094 121.94 40.664 121.14 40.664C120.81 40.664 120.49 40.7013 120.18 40.776C119.882 40.8507 119.578 40.9893 119.268 41.192L118.404 39.688C118.842 39.4107 119.3 39.208 119.78 39.08C120.271 38.9413 120.778 38.872 121.3 38.872C121.876 38.872 122.41 38.952 122.9 39.112C123.402 39.272 123.807 39.5173 124.116 39.848C124.426 40.1787 124.58 40.6107 124.58 41.144C124.58 41.464 124.479 41.784 124.276 42.104C124.084 42.424 123.77 42.6533 123.332 42.792V42.856C123.812 42.984 124.191 43.1973 124.468 43.496C124.746 43.7947 124.884 44.2107 124.884 44.744C124.884 45.2773 124.714 45.7253 124.372 46.088C124.031 46.4507 123.588 46.728 123.044 46.92C122.5 47.1013 121.93 47.192 121.332 47.192Z" fill="white"/>
<path d="M126.462 47V39.064H128.734V41.272C128.734 41.6667 128.713 42.1147 128.67 42.616C128.627 43.1067 128.585 43.5973 128.542 44.088H128.59C128.718 43.8427 128.873 43.5653 129.054 43.256C129.235 42.936 129.385 42.6587 129.502 42.424L131.566 39.064H133.71V47H131.438V44.792C131.438 44.3867 131.459 43.9387 131.502 43.448C131.555 42.9573 131.603 42.4667 131.646 41.976H131.582C131.454 42.2107 131.299 42.4933 131.118 42.824C130.947 43.144 130.798 43.416 130.67 43.64L128.606 47H126.462Z" fill="white"/>
<path d="M140.158 47V44.296C139.945 44.3387 139.742 44.3707 139.55 44.392C139.358 44.4133 139.097 44.424 138.766 44.424C138.137 44.424 137.577 44.3227 137.086 44.12C136.595 43.9067 136.211 43.576 135.934 43.128C135.657 42.68 135.518 42.088 135.518 41.352V39.064H137.87V41.352C137.87 41.7573 137.982 42.0667 138.206 42.28C138.43 42.4827 138.787 42.584 139.278 42.584C139.449 42.584 139.603 42.5787 139.742 42.568C139.881 42.5467 140.019 42.52 140.158 42.488V39.064H142.51V47H140.158Z" fill="white"/>
<path d="M148.139 47.192C147.382 47.192 146.699 47.0267 146.091 46.696C145.483 46.3653 145.003 45.8907 144.651 45.272C144.299 44.6533 144.123 43.9067 144.123 43.032C144.123 42.168 144.299 41.4267 144.651 40.808C145.014 40.1893 145.483 39.7147 146.059 39.384C146.635 39.0427 147.238 38.872 147.867 38.872C148.624 38.872 149.248 39.0427 149.739 39.384C150.24 39.7147 150.614 40.168 150.859 40.744C151.115 41.3093 151.243 41.9547 151.243 42.68C151.243 42.8827 151.232 43.0853 151.211 43.288C151.19 43.48 151.168 43.624 151.147 43.72H146.395C146.502 44.296 146.742 44.7227 147.115 45C147.488 45.2667 147.936 45.4 148.459 45.4C149.024 45.4 149.595 45.224 150.171 44.872L150.955 46.296C150.55 46.5734 150.096 46.792 149.595 46.952C149.094 47.112 148.608 47.192 148.139 47.192ZM146.379 42.168H149.243C149.243 41.7307 149.136 41.3733 148.923 41.096C148.72 40.808 148.384 40.664 147.915 40.664C147.552 40.664 147.227 40.792 146.939 41.048C146.651 41.2933 146.464 41.6667 146.379 42.168Z" fill="white"/>
<path d="M156.324 47.192C155.588 47.192 154.921 47.032 154.324 46.712C153.737 46.3814 153.268 45.9067 152.916 45.288C152.575 44.6587 152.404 43.9067 152.404 43.032C152.404 42.1467 152.596 41.3947 152.98 40.776C153.364 40.1573 153.871 39.688 154.5 39.368C155.129 39.0373 155.807 38.872 156.532 38.872C157.023 38.872 157.455 38.952 157.828 39.112C158.212 39.272 158.553 39.4747 158.852 39.72L157.748 41.24C157.375 40.9307 157.017 40.776 156.676 40.776C156.111 40.776 155.657 40.9787 155.316 41.384C154.985 41.7893 154.82 42.3387 154.82 43.032C154.82 43.7147 154.985 44.264 155.316 44.68C155.657 45.0853 156.084 45.288 156.596 45.288C156.852 45.288 157.103 45.2347 157.348 45.128C157.593 45.0107 157.817 44.872 158.02 44.712L158.948 46.248C158.553 46.5893 158.127 46.8347 157.668 46.984C157.209 47.1227 156.761 47.192 156.324 47.192Z" fill="white"/>
<path d="M160.337 47V39.064H162.689V41.992H163.489L164.193 40.536C164.524 39.8533 164.881 39.4054 165.265 39.192C165.66 38.9787 166.14 38.872 166.705 38.872C166.94 38.872 167.153 38.9094 167.345 38.984L166.977 41.16C166.934 41.1387 166.886 41.1227 166.833 41.112C166.78 41.1013 166.726 41.096 166.673 41.096C166.47 41.096 166.289 41.144 166.129 41.24C165.969 41.336 165.814 41.5547 165.665 41.896L165.249 42.84L167.921 47H165.345L163.521 43.832H162.689V47H160.337Z" fill="white"/>
<path d="M169.071 47V39.064H171.343V41.272C171.343 41.6667 171.322 42.1147 171.279 42.616C171.237 43.1067 171.194 43.5973 171.151 44.088H171.199C171.327 43.8427 171.482 43.5653 171.663 43.256C171.845 42.936 171.994 42.6587 172.111 42.424L174.175 39.064H176.319V47H174.047V44.792C174.047 44.3867 174.069 43.9387 174.111 43.448C174.165 42.9573 174.213 42.4667 174.255 41.976H174.191C174.063 42.2107 173.909 42.4933 173.727 42.824C173.557 43.144 173.407 43.416 173.279 43.64L171.215 47H169.071Z" fill="white"/>
<path d="M177.583 47L180.015 42.872L177.727 39.064H180.255L180.959 40.344C181.066 40.568 181.178 40.7973 181.295 41.032C181.413 41.256 181.525 41.48 181.631 41.704H181.695C181.781 41.48 181.871 41.256 181.967 41.032C182.063 40.7973 182.154 40.568 182.239 40.344L182.783 39.064H185.215L182.911 43.144L185.359 47H182.831L182.063 45.688C181.935 45.464 181.807 45.2347 181.679 45C181.562 44.7653 181.439 44.536 181.311 44.312H181.247C181.151 44.536 181.05 44.7653 180.943 45C180.837 45.224 180.735 45.4533 180.639 45.688L180.015 47H177.583Z" fill="white"/>
<path d="M189.821 47.192C189.64 47.192 189.475 47.176 189.325 47.144C189.176 47.112 189.027 47.0693 188.877 47.016L189.261 44.904C189.325 44.9147 189.389 44.9307 189.453 44.952C189.517 44.9627 189.587 44.968 189.661 44.968C189.875 44.968 190.056 44.8773 190.205 44.696C190.365 44.5147 190.472 44.2107 190.525 43.784C190.632 42.9947 190.723 42.2107 190.797 41.432C190.883 40.6427 190.973 39.8533 191.069 39.064H196.925V47H194.573V40.904H192.925C192.851 41.4907 192.776 42.0827 192.701 42.68C192.637 43.2667 192.563 43.8533 192.477 44.44C192.349 45.3253 192.067 46.008 191.629 46.488C191.192 46.9573 190.589 47.192 189.821 47.192Z" fill="white"/>
<path d="M198.993 47V39.064H201.265V41.272C201.265 41.6667 201.244 42.1147 201.201 42.616C201.158 43.1067 201.116 43.5973 201.073 44.088H201.121C201.249 43.8427 201.404 43.5653 201.585 43.256C201.766 42.936 201.916 42.6587 202.033 42.424L204.097 39.064H206.241V47H203.969V44.792C203.969 44.3867 203.99 43.9387 204.033 43.448C204.086 42.9573 204.134 42.4667 204.177 41.976H204.113C203.985 42.2107 203.83 42.4933 203.649 42.824C203.478 43.144 203.329 43.416 203.201 43.64L201.137 47H198.993Z" fill="white"/>
<path d="M214.369 49.752V47H208.321V39.064H210.673V45.16H213.009V39.064H215.361V45.16H216.609V46.696L216.385 49.752H214.369Z" fill="white"/>
<path d="M1.46399 24V3.13601H6.07199V20.032H11.32V3.13601H15.832V20.032H21.048V3.13601H25.656V20.032H28.216V22.976L27.8 30.016H23.608V24H1.46399Z" fill="white"/>
<path d="M38.309 24.384C36.7943 24.384 35.429 24.0533 34.213 23.392C32.997 22.7307 32.037 21.7813 31.333 20.544C30.629 19.3067 30.277 17.8133 30.277 16.064C30.277 14.336 30.629 12.8533 31.333 11.616C32.0583 10.3787 32.997 9.42935 34.149 8.76801C35.301 8.08535 36.5063 7.74401 37.765 7.74401C39.2797 7.74401 40.5277 8.08535 41.509 8.76801C42.5117 9.42935 43.2583 10.336 43.749 11.488C44.261 12.6187 44.517 13.9093 44.517 15.36C44.517 15.7653 44.4957 16.1707 44.453 16.576C44.4103 16.96 44.3677 17.248 44.325 17.44H34.821C35.0343 18.592 35.5143 19.4453 36.261 20C37.0077 20.5333 37.9037 20.8 38.949 20.8C40.0797 20.8 41.221 20.448 42.373 19.744L43.941 22.592C43.1303 23.1467 42.2237 23.584 41.221 23.904C40.2183 24.224 39.2477 24.384 38.309 24.384ZM34.789 14.336H40.517C40.517 13.4613 40.3037 12.7467 39.877 12.192C39.4717 11.616 38.7997 11.328 37.861 11.328C37.1357 11.328 36.485 11.584 35.909 12.096C35.333 12.5867 34.9597 13.3333 34.789 14.336Z" fill="white"/>
<path d="M51.5435 15.2C51.5435 17.0133 51.8315 18.368 52.4075 19.264C52.9835 20.1387 53.7942 20.576 54.8395 20.576C55.7142 20.576 56.3755 20.192 56.8235 19.424C57.2928 18.6347 57.5275 17.5787 57.5275 16.256C57.5275 14.848 57.2822 13.856 56.7915 13.28C56.3008 12.6827 55.6395 12.384 54.8075 12.384C54.2742 12.384 53.7195 12.5333 53.1435 12.832C52.5675 13.1093 52.0342 13.6 51.5435 14.304C51.5435 14.4533 51.5435 14.6027 51.5435 14.752C51.5435 14.88 51.5435 15.0293 51.5435 15.2ZM54.9035 24.384C52.3862 24.384 50.4448 23.4773 49.0795 21.664C47.7142 19.8507 47.0315 17.3227 47.0315 14.08C47.0315 11.6907 47.2768 9.72801 47.7675 8.19201C48.2582 6.65601 48.9408 5.44001 49.8155 4.54401C50.7115 3.64801 51.7675 2.97601 52.9835 2.52802C54.2208 2.08001 55.5755 1.76001 57.0475 1.56801C58.0075 1.44001 58.7542 1.31201 59.2875 1.18401C59.8422 1.03468 60.3648 0.853348 60.8555 0.640015L61.7515 4.73601C61.3462 5.05601 60.8022 5.31201 60.1195 5.50401C59.4368 5.67468 58.7435 5.81335 58.0395 5.92002C56.9302 6.06935 55.9915 6.21868 55.2235 6.36802C54.4555 6.51735 53.8262 6.75201 53.3355 7.07201C52.8662 7.37068 52.5035 7.81868 52.2475 8.41601C51.9915 9.01335 51.8102 9.83468 51.7035 10.88C52.2582 10.24 52.9302 9.76001 53.7195 9.44001C54.5302 9.09868 55.3622 8.92801 56.2155 8.92801C57.3248 8.92801 58.3382 9.20535 59.2555 9.76001C60.1942 10.2933 60.9408 11.104 61.4955 12.192C62.0502 13.28 62.3275 14.6347 62.3275 16.256C62.3275 17.8773 62.0075 19.3067 61.3675 20.544C60.7275 21.76 59.8422 22.7093 58.7115 23.392C57.6022 24.0533 56.3328 24.384 54.9035 24.384Z" fill="white"/>
<path d="M72.809 24.384C71.2943 24.384 69.929 24.0533 68.713 23.392C67.497 22.7307 66.537 21.7813 65.833 20.544C65.129 19.3067 64.777 17.8133 64.777 16.064C64.777 14.336 65.129 12.8533 65.833 11.616C66.5583 10.3787 67.497 9.42935 68.649 8.76801C69.801 8.08535 71.0063 7.74401 72.265 7.74401C73.7797 7.74401 75.0277 8.08535 76.009 8.76801C77.0117 9.42935 77.7583 10.336 78.249 11.488C78.761 12.6187 79.017 13.9093 79.017 15.36C79.017 15.7653 78.9957 16.1707 78.953 16.576C78.9103 16.96 78.8677 17.248 78.825 17.44H69.321C69.5343 18.592 70.0143 19.4453 70.761 20C71.5077 20.5333 72.4037 20.8 73.449 20.8C74.5797 20.8 75.721 20.448 76.873 19.744L78.441 22.592C77.6303 23.1467 76.7237 23.584 75.721 23.904C74.7183 24.224 73.7477 24.384 72.809 24.384ZM69.289 14.336H75.017C75.017 13.4613 74.8037 12.7467 74.377 12.192C73.9717 11.616 73.2997 11.328 72.361 11.328C71.6357 11.328 70.985 11.584 70.409 12.096C69.833 12.5867 69.4597 13.3333 69.289 14.336Z" fill="white"/>
<path d="M85.379 24V11.808H80.707V8.12801H94.787V11.808H90.083V24H85.379Z" fill="white"/>
<path d="M99.465 30.208C98.9957 30.208 98.5797 30.176 98.217 30.112C97.8757 30.048 97.545 29.9733 97.225 29.888L98.057 26.304C98.2063 26.3253 98.377 26.3573 98.569 26.4C98.761 26.464 98.9423 26.496 99.113 26.496C99.9023 26.496 100.51 26.304 100.937 25.92C101.364 25.536 101.684 25.0347 101.897 24.416L102.121 23.584L96.009 8.12801H100.745L103.017 14.944C103.252 15.6693 103.465 16.4053 103.657 17.152C103.849 17.8987 104.052 18.6667 104.265 19.456H104.393C104.564 18.7093 104.734 17.9627 104.905 17.216C105.097 16.448 105.289 15.6907 105.481 14.944L107.401 8.12801H111.913L106.409 24.16C105.918 25.4827 105.374 26.592 104.777 27.488C104.18 28.4053 103.454 29.088 102.601 29.536C101.769 29.984 100.724 30.208 99.465 30.208Z" fill="white"/>
<path d="M114.392 24V8.12801H119.096V13.856H124.184V8.12801H128.888V24H124.184V17.952H119.096V24H114.392Z" fill="white"/>
<path d="M139.808 24V3.13601H144.512V11.328H146.816L149.536 6.52802C150.346 5.09868 151.168 4.11735 152 3.58401C152.853 3.02935 153.866 2.75201 155.04 2.75201C155.338 2.75201 155.648 2.77335 155.968 2.81601C156.288 2.85868 156.554 2.93335 156.768 3.04001L156 7.29601C155.808 7.23201 155.626 7.20001 155.456 7.20001C155.306 7.17868 155.178 7.16801 155.072 7.16801C154.602 7.16801 154.197 7.29601 153.856 7.55202C153.536 7.80801 153.162 8.30935 152.736 9.05602L150.496 12.96L157.312 24H152.352L146.816 15.136H144.512V24H139.808Z" fill="white"/>
<path d="M159.33 24V8.12801H163.874V12.544C163.874 13.3333 163.831 14.2293 163.746 15.232C163.661 16.2133 163.575 17.1947 163.49 18.176H163.586C163.842 17.6853 164.151 17.1307 164.514 16.512C164.877 15.872 165.175 15.3173 165.41 14.848L169.538 8.12801H173.826V24H169.282V19.584C169.282 18.7733 169.325 17.8773 169.41 16.896C169.517 15.9147 169.613 14.9333 169.698 13.952H169.57C169.314 14.4213 169.005 14.9867 168.642 15.648C168.301 16.288 168.002 16.832 167.746 17.28L163.618 24H159.33Z" fill="white"/>
<path d="M177.986 29.888V8.12801H181.826L182.146 9.69601H182.274C182.893 9.14135 183.586 8.68268 184.354 8.32001C185.144 7.93601 185.954 7.74401 186.786 7.74401C188.706 7.74401 190.221 8.48001 191.33 9.95201C192.44 11.4027 192.994 13.3547 192.994 15.808C192.994 17.6213 192.674 19.168 192.034 20.448C191.394 21.728 190.562 22.7093 189.538 23.392C188.536 24.0533 187.458 24.384 186.306 24.384C185.624 24.384 184.962 24.2453 184.322 23.968C183.682 23.6693 183.085 23.2533 182.53 22.72L182.69 25.248V29.888H177.986ZM185.218 20.544C186.029 20.544 186.722 20.1707 187.298 19.424C187.874 18.6773 188.162 17.4933 188.162 15.872C188.162 13.0133 187.245 11.584 185.41 11.584C184.493 11.584 183.586 12.064 182.69 13.024V19.52C183.117 19.904 183.544 20.1707 183.97 20.32C184.397 20.4693 184.813 20.544 185.218 20.544Z" fill="white"/>
<path d="M196.33 24V8.12801H200.874V12.544C200.874 13.3333 200.831 14.2293 200.746 15.232C200.661 16.2133 200.575 17.1947 200.49 18.176H200.586C200.842 17.6853 201.151 17.1307 201.514 16.512C201.877 15.872 202.175 15.3173 202.41 14.848L206.538 8.12801H210.826V24H206.282V19.584C206.282 18.7733 206.325 17.8773 206.41 16.896C206.517 15.9147 206.613 14.9333 206.698 13.952H206.57C206.314 14.4213 206.005 14.9867 205.642 15.648C205.301 16.288 205.002 16.832 204.746 17.28L200.618 24H196.33Z" fill="white"/>
<path d="M214.986 24.384C214.624 24.384 214.293 24.352 213.994 24.288C213.696 24.224 213.397 24.1387 213.098 24.032L213.866 19.808C213.994 19.8293 214.122 19.8613 214.25 19.904C214.378 19.9253 214.517 19.936 214.666 19.936C215.093 19.936 215.456 19.7547 215.754 19.392C216.074 19.0293 216.288 18.4213 216.394 17.568C216.608 15.9893 216.789 14.4213 216.938 12.864C217.109 11.2853 217.29 9.70668 217.482 8.12801H229.194V24H224.49V11.808H221.194C221.045 12.9813 220.896 14.1653 220.746 15.36C220.618 16.5333 220.469 17.7067 220.298 18.88C220.042 20.6507 219.477 22.016 218.602 22.976C217.728 23.9147 216.522 24.384 214.986 24.384Z" fill="white"/>
<path d="M233.33 24.384C232.967 24.384 232.637 24.352 232.338 24.288C232.039 24.224 231.741 24.1387 231.442 24.032L232.21 19.808C232.338 19.8293 232.466 19.8613 232.594 19.904C232.722 19.9253 232.861 19.936 233.01 19.936C233.437 19.936 233.799 19.7547 234.098 19.392C234.418 19.0293 234.631 18.4213 234.738 17.568C234.951 15.9893 235.133 14.4213 235.282 12.864C235.453 11.2853 235.634 9.70668 235.826 8.12801H247.538V24H242.834V11.808H239.538C239.389 12.9813 239.239 14.1653 239.09 15.36C238.962 16.5333 238.813 17.7067 238.642 18.88C238.386 20.6507 237.821 22.016 236.946 22.976C236.071 23.9147 234.866 24.384 233.33 24.384Z" fill="white"/>
</svg>
